<svg width="104" height="32" viewBox="0 0 104 32" fill="none" xmlns="http://www.w3.org/2000/svg">
<path d="M54 1H0V25H54V1Z" fill="#081625"/>
<path d="M46 25L54.25 18.9378V31.0622L46 25Z" fill="#EAEEED"/>
<path d="M15.1962 10.192C15.1962 10.7573 15.0629 11.2907 14.7962 11.792C14.5295 12.2933 14.1029 12.704 13.5162 13.024C12.9295 13.3333 12.1775 13.488 11.2602 13.488H9.24418V18H7.42018V6.88H11.2602C12.1135 6.88 12.8335 7.02933 13.4202 7.328C14.0175 7.616 14.4602 8.01067 14.7482 8.512C15.0469 9.01333 15.1962 9.57333 15.1962 10.192ZM11.2602 12C11.9535 12 12.4709 11.8453 12.8122 11.536C13.1535 11.216 13.3242 10.768 13.3242 10.192C13.3242 8.976 12.6362 8.368 11.2602 8.368H9.24418V12H11.2602ZM22.0078 18.112C20.9731 18.112 20.0185 17.872 19.1438 17.392C18.2798 16.9013 17.5918 16.224 17.0798 15.36C16.5785 14.4853 16.3278 13.504 16.3278 12.416C16.3278 11.328 16.5785 10.352 17.0798 9.488C17.5918 8.624 18.2798 7.952 19.1438 7.472C20.0185 6.98133 20.9731 6.736 22.0078 6.736C23.0531 6.736 24.0078 6.98133 24.8718 7.472C25.7465 7.952 26.4345 8.624 26.9358 9.488C27.4371 10.352 27.6878 11.328 27.6878 12.416C27.6878 13.504 27.4371 14.4853 26.9358 15.36C26.4345 16.224 25.7465 16.9013 24.8718 17.392C24.0078 17.872 23.0531 18.112 22.0078 18.112ZM22.0078 16.528C22.7438 16.528 23.3998 16.3627 23.9758 16.032C24.5518 15.6907 24.9998 15.2107 25.3198 14.592C25.6505 13.9627 25.8158 13.2373 25.8158 12.416C25.8158 11.5947 25.6505 10.8747 25.3198 10.256C24.9998 9.63733 24.5518 9.16267 23.9758 8.832C23.3998 8.50133 22.7438 8.336 22.0078 8.336C21.2718 8.336 20.6158 8.50133 20.0398 8.832C19.4638 9.16267 19.0105 9.63733 18.6798 10.256C18.3598 10.8747 18.1998 11.5947 18.1998 12.416C18.1998 13.2373 18.3598 13.9627 18.6798 14.592C19.0105 15.2107 19.4638 15.6907 20.0398 16.032C20.6158 16.3627 21.2718 16.528 22.0078 16.528ZM35.2587 18L32.6987 13.552H31.3067V18H29.4827V6.88H33.3227C34.176 6.88 34.896 7.02933 35.4827 7.328C36.08 7.62667 36.5227 8.02667 36.8107 8.528C37.1094 9.02933 37.2587 9.58933 37.2587 10.208C37.2587 10.9333 37.0454 11.5947 36.6187 12.192C36.2027 12.7787 35.5574 13.1787 34.6827 13.392L37.4347 18H35.2587ZM31.3067 12.096H33.3227C34.0054 12.096 34.5174 11.9253 34.8587 11.584C35.2107 11.2427 35.3867 10.784 35.3867 10.208C35.3867 9.632 35.216 9.184 34.8747 8.864C34.5334 8.53333 34.016 8.368 33.3227 8.368H31.3067V12.096ZM46.7761 6.88V8.368H43.8161V18H41.9921V8.368H39.0161V6.88H46.7761Z" fill="#EAEEED"/>
<path d="M64.744 6.88V8.368H60.024V11.648H63.704V13.136H60.024V18H58.2V6.88H64.744ZM71.5064 18.112C70.4717 18.112 69.517 17.872 68.6424 17.392C67.7784 16.9013 67.0904 16.224 66.5784 15.36C66.077 14.4853 65.8264 13.504 65.8264 12.416C65.8264 11.328 66.077 10.352 66.5784 9.488C67.0904 8.624 67.7784 7.952 68.6424 7.472C69.517 6.98133 70.4717 6.736 71.5064 6.736C72.5517 6.736 73.5064 6.98133 74.3704 7.472C75.245 7.952 75.933 8.624 76.4344 9.488C76.9357 10.352 77.1864 11.328 77.1864 12.416C77.1864 13.504 76.9357 14.4853 76.4344 15.36C75.933 16.224 75.245 16.9013 74.3704 17.392C73.5064 17.872 72.5517 18.112 71.5064 18.112ZM71.5064 16.528C72.2424 16.528 72.8984 16.3627 73.4744 16.032C74.0504 15.6907 74.4984 15.2107 74.8184 14.592C75.149 13.9627 75.3144 13.2373 75.3144 12.416C75.3144 11.5947 75.149 10.8747 74.8184 10.256C74.4984 9.63733 74.0504 9.16267 73.4744 8.832C72.8984 8.50133 72.2424 8.336 71.5064 8.336C70.7704 8.336 70.1144 8.50133 69.5384 8.832C68.9624 9.16267 68.509 9.63733 68.1784 10.256C67.8584 10.8747 67.6984 11.5947 67.6984 12.416C67.6984 13.2373 67.8584 13.9627 68.1784 14.592C68.509 15.2107 68.9624 15.6907 69.5384 16.032C70.1144 16.3627 70.7704 16.528 71.5064 16.528ZM80.8053 16.528H84.5653V18H78.9813V6.88H80.8053V16.528ZM87.9146 6.88V18H86.0906V6.88H87.9146ZM95.3814 18.112C94.3467 18.112 93.392 17.872 92.5174 17.392C91.6534 16.9013 90.9654 16.224 90.4534 15.36C89.952 14.4853 89.7014 13.504 89.7014 12.416C89.7014 11.328 89.952 10.352 90.4534 9.488C90.9654 8.624 91.6534 7.952 92.5174 7.472C93.392 6.98133 94.3467 6.736 95.3814 6.736C96.4267 6.736 97.3814 6.98133 98.2454 7.472C99.12 7.952 99.808 8.624 100.309 9.488C100.811 10.352 101.061 11.328 101.061 12.416C101.061 13.504 100.811 14.4853 100.309 15.36C99.808 16.224 99.12 16.9013 98.2454 17.392C97.3814 17.872 96.4267 18.112 95.3814 18.112ZM95.3814 16.528C96.1174 16.528 96.7734 16.3627 97.3494 16.032C97.9254 15.6907 98.3734 15.2107 98.6934 14.592C99.024 13.9627 99.1894 13.2373 99.1894 12.416C99.1894 11.5947 99.024 10.8747 98.6934 10.256C98.3734 9.63733 97.9254 9.16267 97.3494 8.832C96.7734 8.50133 96.1174 8.336 95.3814 8.336C94.6454 8.336 93.9894 8.50133 93.4134 8.832C92.8374 9.16267 92.384 9.63733 92.0534 10.256C91.7334 10.8747 91.5734 11.5947 91.5734 12.416C91.5734 13.2373 91.7334 13.9627 92.0534 14.592C92.384 15.2107 92.8374 15.6907 93.4134 16.032C93.9894 16.3627 94.6454 16.528 95.3814 16.528Z" fill="#081625"/>
</svg>
